<?xml version="1.0" standalone="no"?>
<!DOCTYPE svg PUBLIC "-//W3C//DTD SVG 20010904//EN"
 "http://www.w3.org/TR/2001/REC-SVG-20010904/DTD/svg10.dtd">
<svg version="1.0" xmlns="http://www.w3.org/2000/svg"
 width="529.000000pt" height="615.000000pt" viewBox="0 0 529.000000 615.000000"
 preserveAspectRatio="xMidYMid meet">

<g transform="translate(0.000000,615.000000) scale(0.100000,-0.100000)"
fill="#000000" stroke="none">
<path d="M2465 6140 c-3 -6 -48 -10 -101 -10 -56 0 -94 -4 -94 -10 0 -5 -21
-10 -46 -10 -25 0 -64 -4 -87 -9 -23 -5 -73 -14 -112 -21 -112 -18 -266 -55
-297 -71 -10 -5 -29 -9 -42 -9 -14 0 -28 -4 -31 -10 -3 -5 -15 -10 -26 -10
-10 0 -27 -4 -37 -9 -23 -13 -115 -46 -182 -65 -30 -9 -66 -22 -80 -28 -14 -6
-36 -15 -50 -21 -14 -5 -33 -13 -42 -18 -10 -5 -25 -9 -33 -9 -8 0 -15 -4 -15
-10 0 -5 -6 -10 -14 -10 -17 0 -240 -111 -244 -122 -2 -4 -12 -8 -23 -8 -10 0
-19 -4 -19 -10 0 -5 -7 -10 -15 -10 -8 0 -15 -4 -15 -10 0 -5 -9 -10 -19 -10
-11 0 -21 -3 -23 -8 -2 -4 -31 -25 -65 -47 -35 -22 -63 -43 -63 -47 0 -5 -6
-8 -14 -8 -7 0 -26 -12 -42 -27 -16 -16 -47 -41 -69 -57 -52 -39 -261 -247
-311 -311 -21 -27 -45 -56 -51 -63 -7 -7 -13 -17 -13 -21 0 -4 -11 -21 -25
-37 -62 -72 -155 -308 -155 -394 0 -53 13 -70 52 -70 25 0 47 -7 108 -33 117
-52 389 -307 534 -502 33 -44 63 -82 66 -85 4 -3 21 -27 40 -55 19 -27 36 -52
39 -55 3 -3 20 -25 36 -50 17 -25 33 -47 38 -48 4 -2 7 -10 7 -18 0 -8 4 -14
8 -14 5 0 15 -12 23 -27 8 -16 17 -30 20 -33 19 -17 74 -109 105 -176 20 -44
40 -87 46 -97 11 -22 1 -38 -11 -18 -5 8 -11 9 -14 3 -7 -11 14 -62 26 -62 4
0 7 -5 7 -11 0 -7 8 -19 18 -28 10 -9 23 -29 30 -46 22 -57 62 -214 62 -243 0
-32 6 -30 -180 -93 -103 -34 -170 -66 -295 -137 -108 -63 -131 -79 -210 -148
-143 -125 -185 -177 -223 -274 -17 -46 -21 -215 -4 -232 6 -6 12 -20 12 -30 0
-10 3 -18 8 -18 4 0 13 -13 20 -29 19 -42 142 -163 215 -210 34 -23 67 -45 74
-51 7 -5 15 -10 19 -10 3 0 27 -15 53 -33 64 -46 66 -47 257 -107 17 -6 47
-10 67 -10 53 0 137 -20 137 -33 0 -8 4 -7 12 1 7 7 18 12 25 12 18 0 53 -41
53 -62 0 -19 99 -124 158 -168 19 -14 39 -30 45 -35 24 -22 106 -75 115 -75 5
0 52 -20 103 -44 96 -45 169 -63 214 -52 24 6 25 9 25 89 0 144 23 163 180
154 145 -9 210 -27 377 -108 67 -32 92 -39 141 -39 34 0 64 5 67 10 3 6 13 10
21 10 14 0 154 89 180 114 6 6 33 29 60 51 76 62 291 280 374 380 41 50 78 92
81 95 3 3 32 41 65 85 32 44 64 86 71 93 7 7 20 26 30 42 10 18 32 35 53 41
53 18 194 90 292 150 209 129 402 291 524 440 32 39 60 66 62 60 2 -6 -17 -41
-41 -78 -25 -38 -44 -70 -42 -72 7 -7 84 60 122 107 48 57 88 124 158 262 43
86 47 94 73 175 38 115 52 191 58 331 5 125 3 152 -16 227 -11 47 -36 118 -55
157 -19 39 -35 72 -35 74 0 6 106 72 150 92 87 41 104 45 177 43 40 -1 76 1
79 4 3 3 -8 13 -25 21 -63 33 -375 6 -425 -36 -19 -16 -42 -7 -76 28 -66 68
-157 121 -230 133 -58 10 -50 35 22 70 101 49 172 138 188 235 4 23 11 49 15
60 6 14 5 18 -6 14 -20 -6 -60 -81 -50 -91 29 -29 -54 -154 -119 -183 -69 -30
-118 -57 -145 -82 -38 -34 -75 -85 -75 -105 0 -8 -6 -25 -13 -38 -46 -86 -81
-110 -166 -114 -45 -2 -57 -6 -61 -21 -11 -41 -41 -84 -59 -84 -21 0 -71 43
-71 62 0 33 23 89 55 134 19 27 35 57 35 66 0 21 16 24 23 6 2 -8 23 8 49 37
55 60 110 92 238 135 52 18 99 36 104 41 6 5 18 9 28 9 10 0 18 5 18 10 0 6 6
10 13 10 6 0 25 11 41 25 36 31 27 32 -22 2 -58 -36 -77 -42 -212 -66 -25 -4
-62 -15 -84 -24 -23 -10 -65 -17 -105 -17 -99 0 -284 -19 -396 -41 -166 -32
-225 -21 -97 18 62 19 64 21 30 22 -50 1 -279 -60 -303 -81 -5 -4 -26 -8 -47
-8 -33 0 -41 5 -61 38 -21 34 -45 97 -69 182 -72 256 -71 740 1 1140 17 95 27
140 65 302 40 170 39 182 -12 206 -14 6 -43 12 -63 12 -21 0 -41 5 -44 10 -4
6 -112 10 -290 10 -178 0 -286 -4 -290 -10z m2440 -2030 c3 -5 -1 -10 -9 -10
-9 0 -16 -4 -16 -10 0 -5 -9 -10 -20 -10 -11 0 -20 -4 -20 -10 0 -5 -5 -10
-11 -10 -41 0 -255 -191 -315 -280 -67 -100 -140 -276 -180 -430 -41 -156
-110 -247 -237 -311 -108 -55 -194 -52 -252 10 -34 36 -39 38 -88 34 -169 -13
-377 -126 -377 -205 0 -18 -12 -41 -31 -63 -46 -50 -59 -81 -59 -140 0 -47 4
-58 34 -89 30 -32 39 -36 85 -36 40 0 51 -3 51 -16 0 -42 -127 -185 -200 -225
-19 -11 -56 -33 -81 -48 -26 -16 -80 -40 -120 -52 -66 -21 -93 -37 -182 -109
-27 -21 -57 -84 -57 -118 0 -25 5 -30 39 -40 70 -21 217 -6 278 28 17 10 34
16 37 13 8 -8 -48 -85 -97 -135 -57 -59 -147 -100 -147 -68 0 16 -15 11 -46
-15 -67 -57 -177 -86 -244 -62 -25 9 -40 23 -53 50 l-18 38 -92 -6 c-109 -9
-192 -28 -221 -52 -37 -33 -42 -38 -61 -70 -24 -41 -35 -42 -35 -4 0 17 -4 33
-10 36 -13 8 -13 110 1 154 12 39 59 143 69 151 16 14 50 70 50 83 0 9 5 17
11 19 19 6 16 105 -3 124 -15 16 -20 16 -45 4 -15 -8 -32 -16 -37 -19 -5 -2
-7 12 -4 30 7 41 40 119 50 119 5 0 8 7 8 15 0 8 5 15 10 15 6 0 10 5 10 11 0
7 8 19 19 28 23 21 58 120 66 191 7 54 19 106 34 145 20 48 57 120 64 123 4 2
7 9 7 15 0 13 92 136 103 137 12 0 8 -16 -17 -61 -14 -24 -30 -65 -35 -91 -22
-96 27 -221 99 -253 32 -15 41 -15 78 -2 118 41 182 140 203 312 5 39 12 103
17 144 6 43 6 90 0 114 -9 43 -2 124 13 133 5 3 9 14 9 25 0 10 5 19 10 19 6
0 10 5 10 11 0 20 78 124 128 171 28 26 77 62 109 79 32 18 65 37 73 44 8 7
29 20 47 29 17 8 37 21 45 29 7 7 36 28 63 47 75 52 184 165 206 215 36 81 52
66 23 -22 -35 -110 -76 -167 -138 -197 -69 -32 -149 -147 -183 -260 -24 -78
-23 -242 1 -286 23 -41 53 -86 80 -117 25 -30 99 -32 136 -3 23 17 25 26 25
97 1 125 40 190 197 329 46 41 88 61 88 43 0 -5 -16 -23 -35 -40 -19 -17 -35
-37 -35 -43 0 -7 -9 -31 -20 -54 -27 -55 -29 -155 -5 -182 21 -23 79 -34 138
-25 128 19 449 330 527 509 47 110 68 142 132 202 57 53 110 85 188 116 14 6
33 14 42 19 10 5 27 9 37 9 11 0 23 5 26 10 3 6 17 10 30 10 13 0 27 -4 30
-10z m-3320 -2472 c59 -17 155 -83 155 -107 0 -6 5 -11 10 -11 6 0 10 -9 10
-19 0 -11 5 -23 10 -26 17 -10 11 -33 -10 -40 -11 -4 -20 -15 -20 -26 0 -45
-73 -31 -172 33 -55 36 -128 100 -128 113 0 4 -16 23 -35 43 -29 32 -37 35
-53 25 -11 -6 -24 -8 -33 -3 -54 34 158 48 266 18z"/>
<path d="M4510 4495 c-11 -13 -10 -14 4 -9 9 3 16 10 16 15 0 13 -6 11 -20 -6z"/>
</g>
</svg>
